# xmcd
#
# Track frame offsets:
#	150
#	14563
#	28896
#	46739
#	61967
#	68439
#	100933
#	114538
#	129702
#	146169
#	163047
#	177213
#	189308
#
# Disc length: 3072 seconds
#
# Revision: 1
# Processed by: cddbd v1.5.2PL0 Copyright (c) Steve Scherf et al.
# Submitted via: audiograbber 1.83.01
#
DISCID=b30bfe0d
DTITLE=John Berry - Songs and Stories - Disc2
DYEAR=1900
DGENRE=Country
TTITLE0=Story - Hank Snow
TTITLE1=90 Miles An Hour(Down A Dead End Street)
TTITLE2=Story - Growing Up In Atlanta
TTITLE3=Heart Of Gold
TTITLE4=Story - Jeep Music
TTITLE5=Story - Robin's Surprise
TTITLE6=Annie's Song
TTITLE7=Story - George Jones
TTITLE8=If I Had Any Pride Left At All
TTITLE9=Faithfully
TTITLE10=You And Only You
TTITLE11=I Think About It All The Time
TTITLE12=America The Beautiful, Power Of Love...
EXTD=
EXTT0=
EXTT1=
EXTT2=
EXTT3=
EXTT4=
EXTT5=
EXTT6=
EXTT7=
EXTT8=
EXTT9=
EXTT10=
EXTT11=
EXTT12=
PLAYORDER=
